<?xml version="1.0" encoding="utf-8"?>
<!-- Generator: Adobe Illustrator 27.2.0, SVG Export Plug-In . SVG Version: 6.00 Build 0)  -->
<svg version="1.1" id="Capa_1" xmlns="http://www.w3.org/2000/svg" xmlns:xlink="http://www.w3.org/1999/xlink" x="0px" y="0px"
	 viewBox="0 0 308 188.6" style="enable-background:new 0 0 308 188.6;" xml:space="preserve">
<style type="text/css">
	.st0{fill:#6D6D6D;}
	.st1{fill-rule:evenodd;clip-rule:evenodd;fill:#6D6D6D;}
</style>
<g id="XMLID_1_">
	<g id="XMLID_3_">
		<path class="st0" d="M98.3,90.2c0-32.6-0.4-61.6,22.4-71.6c-13.3,21.7-10.4,35.8-10.9,63.5h9.6c1.4-38.7-2.7-66.3,28.4-82.1
			c-17.9,19.2-16.8,42.9-17.3,82.1h12.8v8.1H98.3z"/>
	</g>
	<g id="XMLID_2_">
		<path class="st0" d="M130.5,102.6c0,38.4-3.4,103.1-91.6,81.8c59.2-1.6,59.8-43.5,59.4-81.8h11.4c0,27.4-1.2,65.6-28.5,79
			c34-12.4,37.5-47.3,37.8-79C119,102.6,130.5,102.6,130.5,102.6z"/>
	</g>
	<g id="XMLID_33_">
		<polygon class="st1" points="158.1,135.2 160.2,135.2 160.2,128.9 166.6,128.9 166.6,135.2 168.7,135.2 168.7,122.2 166.6,122.2 
			166.6,127 160.2,127 160.2,122.2 158.1,122.2 		"/>
	</g>
	<g id="XMLID_30_">
		<path class="st1" d="M195.5,128.7c0,0.7-0.1,1.3-0.4,1.9c-0.2,0.6-0.6,1.1-1,1.6c-0.5,0.5-1,0.8-1.5,1.1c-0.6,0.2-1.2,0.4-1.8,0.4
			s-1.2-0.1-1.8-0.4c-0.6-0.2-1.1-0.6-1.5-1.1c-0.5-0.5-0.8-1-1-1.6s-0.3-1.2-0.4-1.9c0-0.7,0.1-1.3,0.4-1.9c0.2-0.6,0.6-1.1,1-1.6
			c0.5-0.5,1-0.8,1.6-1.1c0.6-0.2,1.2-0.4,1.8-0.4s1.2,0.1,1.8,0.4c0.6,0.2,1.1,0.6,1.5,1.1c0.5,0.5,0.8,1,1,1.6
			C195.4,127.5,195.5,128.1,195.5,128.7z M197.7,128.7c0-0.9-0.2-1.8-0.5-2.6s-0.8-1.6-1.5-2.2s-1.4-1.1-2.2-1.5
			c-0.8-0.3-1.7-0.5-2.7-0.5c-0.9,0-1.8,0.2-2.7,0.5c-0.8,0.3-1.6,0.8-2.3,1.5s-1.2,1.4-1.5,2.2s-0.5,1.7-0.5,2.6
			c0,0.9,0.2,1.8,0.5,2.6s0.8,1.5,1.5,2.2c0.7,0.6,1.4,1.1,2.3,1.5c0.8,0.3,1.7,0.5,2.7,0.5c0.9,0,1.8-0.2,2.7-0.5
			c0.8-0.3,1.6-0.8,2.3-1.5c0.7-0.6,1.2-1.4,1.5-2.2C197.6,130.6,197.7,129.7,197.7,128.7z"/>
	</g>
	<g id="XMLID_29_">
		<polygon class="st1" points="216.5,124 220,124 220,122.2 211,122.2 211,124 214.4,124 214.4,135.2 216.5,135.2 		"/>
	</g>
	<g id="XMLID_28_">
		<polygon class="st1" points="234.3,135.2 241.5,135.2 241.5,133.3 236.4,133.3 236.4,129.1 241.5,129.1 241.5,127.3 236.4,127.3 
			236.4,124 241.5,124 241.5,122.2 234.3,122.2 		"/>
	</g>
	<g id="XMLID_27_">
		<polygon class="st1" points="256.7,135.2 263.5,135.2 263.5,133.3 258.8,133.3 258.8,122.2 256.7,122.2 		"/>
	</g>
	<g id="XMLID_26_">
		<polygon class="st1" points="277.9,135.2 285.2,135.2 285.2,133.3 280,133.3 280,129.1 285.2,129.1 285.2,127.3 280,127.3 
			280,124 285.2,124 285.2,122.2 277.9,122.2 		"/>
	</g>
	<g id="XMLID_25_">
		<path class="st1" d="M299.6,132.6c0.2,0.9,0.7,1.7,1.4,2.2c0.7,0.5,1.6,0.8,2.7,0.8c1.4,0,2.4-0.4,3.2-1.1
			c0.8-0.7,1.1-1.7,1.1-2.9c0-0.9-0.3-1.7-0.8-2.2c-0.6-0.6-1.4-1.1-2.5-1.6c-0.7-0.3-1.3-0.6-1.8-0.9c-0.4-0.3-0.7-0.8-0.7-1.4
			c0-0.5,0.2-0.9,0.5-1.2s0.8-0.4,1.4-0.4c0.4,0,0.8,0.1,1.1,0.3c0.3,0.2,0.6,0.5,0.8,0.9l1.7-0.9c-0.2-0.7-0.7-1.2-1.3-1.6
			c-0.6-0.4-1.4-0.6-2.4-0.6c-1.2,0-2.1,0.3-2.8,1c-0.7,0.6-1.1,1.5-1.1,2.6c0,1,0.3,1.7,0.9,2.3c0.6,0.6,1.5,1.1,2.7,1.7
			c0.7,0.3,1.2,0.6,1.7,0.9c0.4,0.3,0.6,0.7,0.6,1.3s-0.2,1.1-0.6,1.4c-0.4,0.3-0.9,0.5-1.5,0.5c-0.7,0-1.2-0.2-1.6-0.5
			s-0.7-0.7-0.9-1.3L299.6,132.6z"/>
	</g>
	<g id="XMLID_24_">
		<rect x="158.3" y="64.5" class="st1" width="10.4" height="44.9"/>
	</g>
	<g id="XMLID_23_">
		<path class="st1" d="M181.6,109.4V64.5h7.1L220.3,91c1.1,0.9,2,1.7,2.8,2.5s1.6,1.6,2.3,2.4c-0.2-2.5-0.3-4.3-0.3-5.4
			c-0.1-1-0.1-1.9-0.1-2.4V64.5h9.4v44.9h-7.1l-33-27.7c-0.8-0.7-1.5-1.3-2.1-1.9s-1.1-1.1-1.7-1.7c0.1,1.4,0.2,2.7,0.3,3.9
			c0.1,1.2,0.1,2.3,0.1,3.2v24.3L181.6,109.4L181.6,109.4L181.6,109.4z"/>
	</g>
	<g id="XMLID_22_">
		<rect x="247.2" y="64.5" class="st1" width="10.4" height="44.9"/>
	</g>
	<g id="XMLID_21_">
		<polygon class="st1" points="294.4,72.5 294.4,109.4 284,109.4 284,72.5 270.6,72.5 270.6,64.5 307.9,64.5 307.9,72.5 		"/>
	</g>
	<g id="XMLID_20_">
		<path class="st1" d="M24.8,109.4V64.5h7.1L63.5,91c1.1,0.9,2,1.7,2.8,2.5s1.6,1.6,2.3,2.4c-0.2-2.5-0.3-4.3-0.3-5.4
			c-0.1-1-0.1-1.9-0.1-2.4V64.5h9.4v44.9h-7.1l-33-27.7c-0.8-0.7-1.5-1.3-2.1-1.9s-1.1-1.1-1.7-1.7c0.1,1.4,0.2,2.7,0.3,3.9
			c0.1,1.2,0.1,2.3,0.1,3.2v24.3L24.8,109.4C24.8,109.5,24.8,109.4,24.8,109.4z"/>
	</g>
	<g id="XMLID_19_">
		<rect y="64.4" class="st1" width="10.4" height="44.9"/>
	</g>
</g>
</svg>
