<?xml version="1.0" encoding="utf-8"?>
<!-- Generator: Adobe Illustrator 27.2.0, SVG Export Plug-In . SVG Version: 6.00 Build 0)  -->
<svg version="1.1" id="Layer_1" xmlns="http://www.w3.org/2000/svg" xmlns:xlink="http://www.w3.org/1999/xlink" x="0px" y="0px"
	 viewBox="0 0 592.6 129.5" enable-background="new 0 0 592.6 129.5" xml:space="preserve">
<g>
	<path fill="#6D6D6C" d="M22.1,10c6.6-5.4,15.8-7.2,24-5c5.5,1.2,10.6,4.6,16.4,4.2c2.9-0.1,6.9-3.9,8.2-5.1l0.5,0l0,0v43.6h-0.4
		C68.5,36.1,64.6,24.2,57,15c-3.7-4.6-8.7-8.6-14.7-9.2c-5.4-0.5-11.5-0.1-15.8,3.7c-6.3,5.4-8,14.6-6.3,22.4
		c1.8,6.4,7.1,11.1,12.7,14.3c12,6.5,26.3,8.2,37.5,16.4c7.5,5.4,11.2,14.9,10.6,23.9c-0.5,16.4-12,32.1-28,36.4
		c-7.4,2.1-15.3,1.2-22.4-1.5c-5-1.7-9.8-4.4-15.1-4.5c-3.3-0.2-6.3,1.7-9.1,3.3L6,120.2l0-44.1l0.5,0c0,0,3.1,14.4,6.3,21
		c4.6,9.5,11.4,18.4,21,23.1c9.7,4.8,22.8,2.8,29.6-5.9c7-8.6,5.9-22.8-3-29.6c-12.3-9.4-29-10.4-41.5-19.5
		C11.9,60.2,7.6,52,7.1,43.5C6.4,30.8,12.3,18,22.1,10L22.1,10z"/>
	<path fill="#6D6D6C" d="M444.5,123H465v1.1h-62.8V123h20.5V5.1c-5.8,0-37.5,3.7-39.4,41h-0.5V4.1h101.5v42.1h-0.5
		c-1.9-37.4-33.6-41-39.4-41L444.5,123z"/>
	<path fill="#6D6D6C" d="M364.4,91c0,2.7-0.4,5.4-1,7.9c0,0-3.8,23-31.1,25.1c-2,0.1-3.9,0.1-5.9,0c-13.2-0.5-26.2-8.4-31.8-20.5
		c-3.7-7.9-2.3-16.9-2.6-25.4l0-72.9h-14.8V4.1h51.9v1.1l-14.7,0l0,101.1c0.6,8.2,8.4,14.1,16.1,15.1c2.3,0.4,4.5,0.5,6.7,0.2l0,0
		c14.8-2.4,26.1-15.2,26.1-30.7 M364.4,91V5.2h14.5V4.1h-30.1v1.1h14.6V91"/>
	<path fill="#6D6D6C" d="M573.5,94.1c-7.4,13.5-19.4,24.9-35.9,27.9c-8.7,1.5-18.1,1.2-27,0c-14.9-2.1-25.4-13.6-27.6-29.3
		c-5.4-39.4,22.7-81.3,59.7-87.8c10.7-1.9,21.5-2.1,31.7,2.6c16.1,7.5,18.3,25.8,4.1,36.6c-10.1,7.7-22.2,10.3-34.6,11
		c-9.8,0.5-19.7,0.4-29.5,0.4c-2.8,0.1-4.5,0.2-4.5,0.2c-3.7,12.9-7.8,29.3-6.9,42.9c0.8,12.2,6.4,19.1,18.4,20.7
		c20,2.7,35.4-5.1,46.7-21.4c1.2-1.8,2.6-3.5,3.5-5.1L573.5,94.1z M510.7,54c11.5-1.2,21.9-1.7,32-3.6c8.7-1.6,16.4-5.7,21.7-13.3
		c5.5-8,5.9-21.3,0.7-26.6C559.5,5,549,5,539.8,11C524.7,21.1,517.3,36.3,510.7,54z"/>
	<path fill="#6D6D6C" d="M149,123l-16.1-40H97.7L84,123h13.7v1H67.7v-1h15.3L123.5,4.1h0.5l48,118.9h12.2v1h-47.3v-1H149
		 M114.2,36.8h-0.7L98,82h34.4L114.2,36.8z"/>
	<path fill="#6D6D6C" d="M193.8,5.2V4.1h46.1v1.1h-12.2V123c0,0,11.8,0,17.4,0c5.8,0,37.4-3.7,39.3-41.1h0.5v42h-91.1v-1h12.1V5.2
		L193.8,5.2z"/>
	<g>
		<path fill="#6D6D6C" d="M142.1,6c1.2-1,2.9-1.3,4.4-0.9c1,0.2,1.9,0.8,3,0.8c0.5,0,1.3-0.7,1.5-0.9l0.1,0l0,0v8H151
			c-0.4-2.1-1.1-4.3-2.5-6c-0.7-0.8-1.6-1.6-2.7-1.7c-1-0.1-2.1,0-2.9,0.7c-1.1,1-1.5,2.7-1.1,4.1c0.3,1.2,1.3,2,2.3,2.6
			c2.2,1.2,4.8,1.5,6.8,3c1.4,1,2,2.7,1.9,4.4c-0.1,3-2.2,5.9-5.1,6.6c-1.3,0.4-2.8,0.2-4.1-0.3c-0.9-0.3-1.8-0.8-2.8-0.8
			c-0.6,0-1.1,0.3-1.7,0.6l-0.1,0v-8.1l0.1,0c0,0,0.6,2.6,1.2,3.8c0.8,1.7,2.1,3.4,3.8,4.2c1.8,0.9,4.2,0.5,5.4-1.1
			c1.3-1.6,1.1-4.2-0.6-5.4c-2.3-1.7-5.3-1.9-7.6-3.6c-1.3-0.9-2.1-2.4-2.1-4C139.2,9.8,140.3,7.5,142.1,6L142.1,6z"/>
		<path fill="#6D6D6C" d="M195.6,24.3c-1.2,1.9-3.2,2.7-5.7,2.5c-3.4-0.1-5.5-1.7-6.2-4.4c-0.6-2.2-0.4-4.3,0.9-6.2
			c1.8-2.6,5.2-3,7.7-2.3c2.2,0.6,3.1,2.1,3.4,3.9c0.1,0.6,0.1,1.2,0.2,1.8c-3.2,0-6.3,0-9.5,0c0,1-0.1,3.7,0.8,5.3
			c0.9,1.5,3.1,2.1,5.2,1.4c1.2-0.4,2.1-1,2.7-1.9c0.1-0.2,0.2-0.2,0.3-0.4l0.2,0.1C195.6,24.2,195.6,24.3,195.6,24.3z M192.9,19.5
			c-0.1-1.5-0.1-3.2-1-4.5c-0.5-0.7-1.1-1.1-2.1-1.1c-1.3,0-2.1,0.5-2.7,1.6c-0.6,1.2-0.7,2.8-0.7,4.1H192.9z"/>
		<path fill="#6D6D6C" d="M166.7,14.7l4.3,8.8h0.1l2.9-8.3c0.5-1.6-1.7-1.4-1.7-1.4v-0.2h4.2v0.2c-1.8,0-2.3,1.4-2.3,1.4l-5.7,16.1
			c-0.4,1-1,1.7-1,1.7c-0.7,0.8-1.8,0.7-2.8,0.3c-0.9-0.3-1.5-1.8-1-2.7c0.3-0.5,0.8-0.6,1.3-0.5c0.5,0.1,0.7,0.4,0.8,0.8
			c0,0.3-0.1,0.7-0.1,1.1c0,0.4-0.2,0.9,0.3,1.1c0.5,0.3,1,0.1,1.4-0.2c0.7-0.7,1-1.6,1-1.6l1.6-4.5L164.5,15l0,0
			c0,0-0.5-1.2-1.3-1.2h-0.8v-0.2h5.7v0.2h-0.8C167.4,13.8,166.3,13.8,166.7,14.7"/>
		<path fill="#6D6D6C" d="M178.5,9.6c0-1.2-1.2-1.2-1.2-1.2h-1V8.2h4.6v18.4h1.6v0.2h-5.7v-0.2h1.7V9.6z"/>
		<path fill="#6D6D6C" d="M162.2,23.6c0,0.8-0.4,1.7-1,2.3h0c-0.3,0.3-0.7,0.5-1.2,0.5c-0.7,0-1.3-0.5-1.5-1.1c0,0-0.3-0.7-0.3-1.7
			v-9.8h3v-0.2h-3V8.2h-0.1h-0.1c0,5.4-4.3,5.4-4.3,5.4v0.2h2v9.8c0,1.8,1.4,3.2,3.2,3.2l0.3,0c1.2,0,2-0.4,2.6-1.5
			c0,0,0.4-0.8,0.4-1.7L162.2,23.6"/>
	</g>
</g>
</svg>
