<?xml version="1.0" encoding="UTF-8"?><svg id="Layer_1" xmlns="http://www.w3.org/2000/svg" viewBox="0 0 1258.7 216.66"><defs><style>.cls-1{fill-rule:evenodd;}.cls-1,.cls-2{fill:#6d6d6d;}</style></defs><g><path class="cls-2" d="m364.47,85.76c-5.77-4.81-13.15-8.01-20.85-8.01-5.77,0-13.47,3.36-13.47,10.1s8.5,9.78,13.95,11.54l8.02,2.4c16.84,4.97,29.83,13.47,29.83,33.04,0,12.03-2.89,24.37-12.51,32.55-9.46,8.02-22.13,11.39-34.32,11.39-15.23,0-30.15-5.14-42.5-13.79l13.47-25.34c7.86,6.9,17.16,12.51,27.9,12.51,7.38,0,15.24-3.69,15.24-12.19s-12.35-11.87-19.08-13.79c-19.73-5.61-32.71-10.75-32.71-34.16s17.48-40.57,41.7-40.57c12.19,0,27.1,3.85,37.85,9.94l-12.51,24.37Z"/><path class="cls-2" d="m478.32,139.51h-61.29c0,11.9,6.25,18.4,18.28,18.4,6.26,0,10.75-1.93,13.95-7.42h28.07c-4.65,20.14-23.09,28.29-41.86,28.29-27.26,0-47.63-15.36-47.63-43.75s18.7-43.92,45.48-43.92c28.55,0,45,17.65,45,45.72v2.68Zm-26.97-16.47c-1.44-8.24-8.66-12.99-16.52-12.99-8.5,0-15.56,4.75-17.32,12.99h33.84Z"/><path class="cls-2" d="m514.32,110.26h.62c5.61-11.9,15.23-15.56,26.62-15.56h5.71v27.96c-4.58-2.25-8.06-2.73-12.55-2.73-16.2,0-20.4,10.74-20.4,24.86v33.2h-28.37v-82.37h28.37v14.64Z"/><path class="cls-2" d="m594.47,137.79l19.56-42.18h32.71l-42.98,82.37h-18.6l-43.14-82.37h32.72l19.73,42.18Z"/><path class="cls-2" d="m680.9,67.38c0,8.98-7.38,16.35-16.36,16.35s-16.36-7.37-16.36-16.35,7.38-16.36,16.36-16.36,16.36,7.38,16.36,16.36Zm-.93,110.6h-30.2v-82.37h30.2v82.37Z"/><path class="cls-2" d="m753.81,120.62c-4.58-3.21-9.66-5.77-15.28-5.77-11.22,0-20.15,8.66-20.15,20.04s8.65,20.21,20.68,20.21c5.13,0,10.17-2.08,14.74-5.61v24.7c-7.32,3.21-13.67,4.65-20.73,4.65-24.38,0-44.85-18.12-44.85-42.98,0-26.46,20.36-44.74,46.18-44.74,6.74,0,13.91,1.6,19.4,4.81v24.7Z"/><path class="cls-2" d="m851.74,139.51h-61.14c0,11.9,6.26,18.4,18.28,18.4,6.26,0,10.75-1.93,13.95-7.42h28.06c-4.65,20.14-23.09,28.29-41.86,28.29-27.26,0-47.63-15.36-47.63-43.75s18.62-43.92,45.4-43.92c28.54,0,44.92,17.65,44.92,45.72v2.68Zm-26.82-16.47c-1.44-8.24-8.66-12.99-16.52-12.99-8.5,0-15.56,4.75-17.32,12.99h33.84Z"/><path class="cls-2" d="m909.7,177.99h-30.2v-94.27h-26.54v-26.54h83.29v26.54h-26.54v94.27Z"/><path class="cls-2" d="m973.65,67.38c0,8.98-7.37,16.35-16.35,16.35s-16.36-7.37-16.36-16.35,7.38-16.36,16.36-16.36,16.35,7.38,16.35,16.36Zm-1.71,110.6h-29.29v-82.37h29.29v82.37Z"/><path class="cls-2" d="m1019.53,177.99h-29.29v-58.58h-9.15v-23.8h9.15v-24.71h29.29v24.71h16.47v23.8h-16.47v58.58Z"/><path class="cls-2" d="m1131.19,177.99h-29.29v-9.15h-.23c-5.13,8.24-15.23,11.87-24.85,11.87-24.38,0-41.54-20.37-41.54-43.94s16.79-43.78,41.17-43.78c9.46,0,19.04,3.53,25.45,10.75v-8.12h29.29v82.37Zm-65.76-41.06c0,10.43,6.89,18.44,18.76,18.44s18.77-8.02,18.77-18.44-6.9-18.6-18.77-18.6-18.76,8.5-18.76,18.6Z"/><path class="cls-2" d="m1169.63,106.6h.62c6.74-10.07,14.81-13.46,26.19-13.46,22.13,0,30.85,13.8,30.85,34.01v50.84h-29.29v-40.1c0-7.85,1.29-21.65-13.14-21.65-11.87,0-15.23,8.82-15.23,19.08v42.66h-29.29v-82.37h29.29v10.98Z"/><path class="cls-2" d="m1233.17,95.67c0-7.09,5.63-12.73,12.76-12.73s12.76,5.63,12.76,12.73-5.63,12.73-12.76,12.73-12.76-5.64-12.76-12.73Zm2.07,0c0,5.99,4.86,10.66,10.69,10.66s10.69-4.66,10.69-10.66-4.86-10.65-10.69-10.65-10.69,4.63-10.69,10.65Zm16.52,7.26h-2.37l-3.66-6.41h-2.89v6.41h-1.83v-14.64h6.01c2.59,0,4.92.94,4.92,3.95,0,2.82-1.91,3.94-3.82,4l3.63,6.69Zm-8.91-11.9v3.66h2.43c1.94,0,4.6.28,4.6-1.67,0-1.81-1.52-1.99-3.24-1.99h-3.79Z"/></g><g><path class="cls-1" d="m20.7,197.1s12.4,4.96,12.4,9.92c0,0-.75,3.72-4.96,3.72s-9.91-6.66-9.91-9.92,2.48-3.72,2.48-3.72Z"/><path class="cls-2" d="m7.63,135.98c-.06-.25-.22-.47-.45-.58s-.5-.13-.74-.02c-2.42,1.06-6.44,3.97-6.44,10,0,22.25,60,24.76,92.48,64.57,3.54,4.34,8.89,6.82,14.49,6.72,7.37-.14,14.72-.53,21.24-1.58.77-.12,1.42-.64,1.72-1.35s.21-1.54-.23-2.18C90.14,155.21,14.82,168.25,7.63,135.98Z"/><g><path class="cls-2" d="m93.66,66.33c-3.85-3.85-14.77-.91-20.64,4.06-6.03,5.11-3.63,8.54-3.63,8.54,4.9-6.91,12.57-9.73,16.89-10.28,5.31-.67,7.38-2.32,7.38-2.32Z"/><path class="cls-2" d="m234.09,62c-2.31-4.7-5.92-8.48-12.81-10.18-6.7-1.65-12.62-.8-16.67,2.74l-13.42-4.56c-1.52-3.3-2.78-6.3-3.69-8.9-.77-2.19-2.29-4.02-4.31-5.17-8.78-5.01-32.58-16.91-41.79-4.75,0,0-.48.54-1.14,1.51l-2.88-.98c-1.49-5.18-6.4-9.15-13.2-10.82-4.19-1.03-8.3-.77-11.72.49-2.48.92-2.61,3.82-.11,4.7l10.71,3.76c2.43.85,3.71,3.51,2.86,5.94v.04c-.87,2.43-3.53,3.71-5.96,2.86,0,0-6.82-2.02-11.6-3.44-2.52-.75-4.83,1.61-4.08,4.13,1.54,5.13,6.59,9.67,13.33,11.33,5.73,1.41,11.34.4,15.19-2.28l2.51.85c.19,5.83,4.69,12.79,8.9,15.29,6.45,3.83,12.37.42,19.08-2.85,0,0,16.82,13.44,9.03,51.56-21.54,2.27-29.32,10.02-37.14,17.83-4.89-1.95-19.7-2.9-27.57-1.08,2.23-2.23,5.94-4.87,10.48-6.63,2.06-.8,3.42-2.78,3.42-4.99,0,0,9.86-3.15,9.86-6.77s-12.18-3.25-17.18-29.29c-.81-3.02-1.73-5.56-6.38-7.73,0,0-1.29-2.73.59-5.71,1.88-2.98,3.26-4.37,2.76-6.73-.5-2.37-3.98-4.31-3.98-4.31v-3.97s-9.97-7.26-9.97-17.66,13.51-22.88,17.2-26.51c.21-.21.32-.51.27-.81-.04-.3-.24-.54-.49-.7-4.75-2.95-14.18-8.2-28.67-8.2C28.27,0,14.88,51.36,2.6,76.32c-.27.55-.32,1.19-.04,1.75,12.25,24.43,32.03,22.44,33.11,42.93.87,16.38-2.97,16.75-6.78,16.4-2.5-.23-6.17-2.47-8.4-3.98-.31-.21-.71-.2-1.01.03s-.41.61-.3.96c1.49,4.47,5.91,13.67,18.55,13.67,6.43,0,8.48-5.83,8.48-11.21v-18.52c0-1.82-.6-3.56-1.98-4.74-4.35-3.75-13.62-12.73-13.62-20.71,0-3.41,2.27-5.18,4.92-5.18,4.97,0,9.79,7.47,13.52,16.9.87,2.2,2.12,3.76,3.27,4.52.18.12.41.11.59-.01.17-.13.25-.34.19-.55-1.54-5.47-2.05-11.19-2.21-14.01-.07-1.11-.58-2.15-1.43-2.87-3.69-3.15-13.68-13.06-13.68-27.86,0-19.94,31.74-18.27,38.15-17.73,1.91,6.65,5.88,9.53,8.54,10.75-9.6,3.54-31.28,10.65-31.28,22.92,0,13.16,21.73,12.2,21.73,12.2,0,0-3.45,26.27,21.02,34.19,0,0-3.82,3.87-16.97,3.87-12.27,0-18.25-5.47-21.17-11.94-.12-.27-.39-.44-.69-.44-.3,0-.56.19-.67.47-.67,1.68-1.2,4.71,1.12,8.5,3.6,5.89,8.26,9.26,8.26,16.74,0,5.53-4.96,8.99-6.99,10.18-.13.08-.21.23-.18.38.02.15.13.28.28.31,4.82,1.17,26.75,6.67,41.51,13.68.12.06.25.05.36-.02,1.66-1.04,14.43-9.38,15.16-20.38,0,0,.96-7.19-9.77-8.49,0,0,4.65-1.8,13.05-1.8s17.53,6.8,1.06,40.67c-.08.17-.02.38.14.48,2.53,1.59,21.28,13.55,33.27,25.18.27.26.65.4,1.02.37.38-.03.73-.22.96-.52,1.55-2.05,4.54-7.54,6.75-21.05.2-1.24,1.11-2.26,2.32-2.61,7.16-2.06,31.68-10.01,42.41-24.78,12.64-17.39,17.02-19.26,17.02-19.26,0,0,8.27-4.63,4.77-16.89-1.83-6.4-11.46-23.18-20.93-40.36,2.18,1.57,4.79,2.79,7.71,3.51,5.76,1.42,11.4.53,15.45-2,.89-.56,1.38-1.57,1.27-2.61-.12-1.04-.82-1.92-1.81-2.27l-10.66-3.74c-2.57-.9-3.93-3.72-3.02-6.29v-.04c.92-2.57,3.73-3.93,6.3-3.02l9.52,3.34c.95.33,2.01.09,2.72-.62.71-.71,1.07-1.82.62-2.72Zm-112.3-13.14c-9.14,0-13.17-7.77-13.17-7.77,0,0,10.48,9.92,25.05,1.85,0,0-2.73,5.92-11.87,5.92Zm-10.84,39.16s3.6,15.76,10.84,21.33c0,0-.28,1.59-2.56,1.59s-6.58-3.66-8.29-12.17c-1.7-8.51,0-10.75,0-10.75Zm-28.98-48.48c-.41-.05-.73-.36-.78-.77-1.56-11.56,3.51-25.65,3.51-25.65,0,0-12.31,9.93-11.83,25.8-10.45-.27-25.8.87-34.86,8.61-12.7,10.84-14.78,31.32-15.12,36.69-.02.3-.19.56-.46.7-.26.14-.58.13-.84-.03-2.99-1.81-10.05-7.78-4.98-21.9C22.94,45.39,42.49,8.86,81.47,6.39c0,0,11.93-.5,19.99,3.78.27.14.44.41.47.7.03.3-.1.59-.33.78-3.34,2.66-13.73,11.96-17.45,27.36-.11.44-.53.73-.98.68-.31-.04-.71-.09-1.19-.14Zm-3.28,45.88c-14.61,2.6-19.78-1.88-19.78-5.66,0-11.54,33.19-20.48,42.54-20.62,1.88,2.84-1.43,2.36-2.79,6.65-1.35,4.29-4.66,5.65-9.49,6.24-4.83.58-9.9,3.09-13.08,6.02-2.96,2.73,0,3.97,6.02,2.24,5.9-1.7,6.61.84,9.02-.06,2.41-.9.27-3.8,1.29-4.33,1.56-.81,4.78,1.39,4.78,1.39l8.39,5.34s-9.43,4.8-10.1,5.16c-.66.37-1.79.99-1.79,2.28,0,2.04,5.23,1.29,7.02,1.29s2.07,2.94,2.07,2.94c-2.74,3.17-9.89,3.19-9.89,3.19,1.59,3.37,10.59,2.83,12.4,2.89,1.82.06,2,2.62,2.92,6.79.92,4.17,6.75,5.95,6.75,5.95,1.88,6.18-5.56,7.98-10.49,7.98-28.86,0-25.81-35.67-25.81-35.67Zm101.27-31.01l20.6,6.23s3.78,7.03-3.84,4.97c-7.62-2.06-15.06-4.39-15.06-4.39,0,0-4.03-2.06-1.7-6.81Zm-19.22.85c-4.62-.49-1.33-7.96-4.65-8.42-1.28-.18-1.58,8.45-3.08,7.13-2.98-2.61-.78-7.95-.47-10.45.31-2.49,1.52-5.61-1.17-3.74-2.69,1.88-4.12,5.83-5.04,9.2-.91,3.37.91,4.97,2.16,8.87,1.25,3.9-1.07,2.56-1.07,2.56-12.52-7.51-3.5-23.31-3.5-23.31,5.42-9.28,13.54-6.51,13.54-6.51,1.57.56,1.97,1.49,1.97,3.46s.53,2.6,2.86,3.15c2.33.55,3.43,3.41,3.43,8.05s-2.94,10.21-5,9.99Zm10.31,0s-3.15-.62-2.14-5.34c.5-1.6.85-1.57.85-4.01s.64-5.28,2.58-6.12c0,0,3.32,0,3.32,8.7,0,3.76-4.61,6.77-4.61,6.77Zm0,77.34s-8.18,15.47-19.29,15.47c-4.54,0-7.78-3.24-7.78-7.73s5.5-20.57,29.41-20.57c5.71,0,10.19,1.05,10.19,4.5s-5.42,9.39-12.52,8.33Zm42.52-17.31s-1.23,9.08-12.46,9.08-21.04-15.92-24.91-52.36c2.78,4.33,5.62,8.5,7.73,13.4,0-5.13,2.4-13.66-9.02-22.42,0,0,30.22,6.29,30.94,37.38,0,5.36-3.14,10.88-5.16,12.89,0,0-1.38,1.19-.52,2.93.85,1.73,2.96,1.33,5.81-.6,2.85-1.92,7.59-5.21,7.59-.31Zm2.86-37.4s-7.79,1.97-15.85-6.36c0,0,3.12.36,3.93-4.21,0,0,4.39,9.05,11.92,10.58Z"/><path class="cls-2" d="m89.32,92.5s-4.24,1.13-3.11,6.98c1.14,5.9,5.94,6.05,5.94,6.05-4.17-4.85-2.84-13.03-2.84-13.03Z"/></g><path class="cls-1" d="m18.35,173.92c14.67,8.32,47.06,17.99,53.84,35.4,0,0,2.31,3.87-10.47,3.87-9.69,0-12.29-2.35-19.17-10.31-10.1-11.68-30.13-18.49-30.13-27.51,0,0,.13-4.74,5.94-1.45Z"/></g></svg>