<?xml version="1.0" encoding="utf-8"?>
<!-- Generator: Adobe Illustrator 27.2.0, SVG Export Plug-In . SVG Version: 6.00 Build 0)  -->
<svg version="1.1" id="Capa_1" xmlns="http://www.w3.org/2000/svg" xmlns:xlink="http://www.w3.org/1999/xlink" x="0px" y="0px"
	 viewBox="0 0 231 30" style="enable-background:new 0 0 231 30;" xml:space="preserve">
<style type="text/css">
	.st0{fill:#939598;}
</style>
<path class="st0" d="M99.6,19.5h15.2l-8.1-13L92,30h-6.7l18-28.2c1.4-1.9,4-2.4,6-1.1c0.4,0.3,0.7,0.6,1,1L128.3,30h-6.7l-3.2-5.2
	H103L99.6,19.5 M169.6,24.8V0.3h-5.7v26.9c0,0.8,0.3,1.5,0.9,2c0.5,0.6,1.3,0.9,2.1,0.9h26l3.4-5.2L169.6,24.8 M75,20.4
	c5.6,0,10.1-4.5,10.1-10S80.5,0.3,75,0.3H50V30h5.7V5.5h18.9c2.7,0,4.8,2.2,4.8,4.8s-2.2,4.8-4.8,4.8H58.5L75.6,30h8.3l-11.5-9.6H75
	 M14.9,30h17.3c8.2-0.2,14.7-7,14.5-15.2C46.4,6.9,40,0.5,32.1,0.3H14.9C6.7,0.1-0.2,6.6-0.4,14.8s6.3,15,14.5,15.2
	C14.3,30,14.6,30,14.9,30 M31.7,24.8H15.2c-5.3-0.2-9.5-4.6-9.3-9.9c0.2-5.1,4.2-9.1,9.3-9.3h16.5c5.3-0.2,9.8,4,9.9,9.3
	c0.2,5.3-4,9.8-9.3,9.9C32.2,24.8,31.9,24.8,31.7,24.8 M140.2,30h17.6l3.3-5.2h-20.6c-5.3,0.2-9.8-4-9.9-9.3c-0.2-5.3,4-9.8,9.3-9.9
	c0.2,0,0.4,0,0.6,0h16.8l3.4-5.2h-20.5c-8.2-0.2-15,6.3-15.2,14.5c-0.2,8.2,6.3,15,14.5,15.2C139.7,30,140,30,140.2,30 M210.1,24.8
	c-4.3,0-8.1-2.9-9.3-7h24.4l3.4-5.2h-27.8c1.2-4.1,5-7,9.3-7h16.8l3.4-5.2h-20.5c-8.2,0.2-14.7,7-14.5,15.2
	c0.2,7.9,6.6,14.3,14.5,14.5h17.6l3.4-5.2L210.1,24.8"/>
</svg>
