<?xml version="1.0" encoding="utf-8"?>
<!-- Generator: Adobe Illustrator 27.2.0, SVG Export Plug-In . SVG Version: 6.00 Build 0)  -->
<svg version="1.1" id="Layer_1" xmlns="http://www.w3.org/2000/svg" xmlns:xlink="http://www.w3.org/1999/xlink" x="0px" y="0px"
	 viewBox="0 0 227.2 30" style="enable-background:new 0 0 227.2 30;" xml:space="preserve">
<style type="text/css">
	.st0{fill:#939598;}
</style>
<path class="st0" d="M5.6,5.6V30H0V3.8L3.9,0h35.7l3.9,3.8V30h-5.8V5.6H24.5V30h-5.7V5.6H5.6z M47.2,0h5.6v24.6h20L69.9,30H47.2V0z
	 M82.2,28.9c-1.9-0.7-3.5-1.8-4.9-3c-1.4-1.3-2.4-2.9-3.2-4.7c-0.8-1.8-1.2-3.9-1.2-6.1s0.4-4.3,1.2-6.1s1.8-3.4,3.2-4.7
	c1.4-1.3,3-2.4,4.9-3.1C84.1,0.3,86.1,0,88.3,0h6.3c2.2,0,4.2,0.3,6.1,1.1s3.5,1.8,4.9,3.1s2.4,2.9,3.2,4.7c0.8,1.8,1.2,3.9,1.2,6.1
	s-0.4,4.3-1.2,6.1c-0.8,1.8-1.8,3.4-3.2,4.7c-1.4,1.3-3,2.3-4.9,3s-3.9,1.1-6.1,1.1h-6.3C86.1,30,84.1,29.7,82.2,28.9L82.2,28.9z
	 M98.7,24c1.2-0.5,2.1-1.1,3-2c0.8-0.9,1.5-1.9,2-3c0.5-1.2,0.7-2.5,0.7-3.9s-0.3-2.7-0.7-3.9s-1.1-2.2-2-3c-0.8-0.9-1.8-1.5-3-2
	c-1.1-0.5-2.4-0.7-3.8-0.7h-7c-1.4,0-2.6,0.2-3.8,0.7s-2.1,1.1-3,2s-1.5,1.8-2,3s-0.7,2.5-0.7,3.9s0.2,2.7,0.7,3.9
	c0.5,1.2,1.1,2.2,2,3c0.9,0.9,1.8,1.5,3,2s2.4,0.7,3.8,0.7h7C96.3,24.6,97.6,24.4,98.7,24z M121.6,28.9c-1.9-0.7-3.5-1.8-4.9-3
	c-1.4-1.3-2.4-2.9-3.2-4.7c-0.8-1.8-1.2-3.9-1.2-6.1s0.4-4.3,1.2-6.1s1.8-3.4,3.2-4.7c1.4-1.3,3-2.4,4.9-3.1
	c1.8-0.8,3.9-1.1,6.1-1.1h15.6l-2.9,5.4h-13c-1.4,0-2.6,0.2-3.8,0.7c-1.2,0.5-2.1,1.1-3,2c-0.9,0.9-1.5,1.8-2,3s-0.7,2.5-0.7,3.9
	s0.3,2.7,0.7,3.9c0.5,1.2,1.2,2.2,2,3c0.9,0.9,1.8,1.5,3,2s2.4,0.7,3.8,0.7H138v-7.6l-9,0.1l-2.5-4.6h16.8V30h-15.6
	C125.5,30,123.4,29.7,121.6,28.9L121.6,28.9z M148.2,0h5.6v30h-5.6V0z M166.9,28.9c-1.9-0.7-3.5-1.8-4.9-3c-1.4-1.3-2.4-2.9-3.2-4.7
	c-0.7-1.9-1.1-3.9-1.1-6.2s0.4-4.3,1.2-6.1s1.8-3.4,3.2-4.7s3-2.4,4.9-3.1s3.9-1.1,6.1-1.1h14.3l-2.8,5.4h-11.7
	c-1.4,0-2.6,0.2-3.8,0.7s-2.1,1.1-3,2c-0.9,0.9-1.5,1.8-2,3s-0.7,2.5-0.7,3.9s0.3,2.7,0.7,3.9c0.5,1.2,1.2,2.2,2,3
	c0.9,0.9,1.8,1.5,3,2s2.4,0.7,3.8,0.7h14.6l-2.9,5.4h-11.4C170.9,30,168.8,29.7,166.9,28.9z M218.1,24.5h-16.8l2.4-4.5h11.9L208,6.3
	L194.9,30h-6.1l16-28.4c0.6-1,1.5-1.6,2.6-1.6h1.3c1.1,0,2,0.5,2.5,1.6l16,28.4h-6L218.1,24.5L218.1,24.5z"/>
</svg>
