<?xml version="1.0" encoding="utf-8"?>
<!-- Generator: Adobe Illustrator 27.2.0, SVG Export Plug-In . SVG Version: 6.00 Build 0)  -->
<svg version="1.1" id="Capa_1" xmlns="http://www.w3.org/2000/svg" xmlns:xlink="http://www.w3.org/1999/xlink" x="0px" y="0px"
	 viewBox="0 0 1158.4 249.4" style="enable-background:new 0 0 1158.4 249.4;" xml:space="preserve">
<style type="text/css">
	.st0{fill:#FFFFFF;}
	.st1{fill:#0957C3;}
</style>
<g>
	<g>
		<path class="st0" d="M410.7,157.1v27.2h-130V62.4h128.1v27.2h-93.1v20h76.8v25.9h-76.8v21.6H410.7z"/>
		<path class="st0" d="M466.6,62.4l40.2,87.7l40-87.7h37.9l-59.7,121.9h-37.3L428.3,62.4H466.6z"/>
		<path class="st0" d="M606.6,184.2V62.4h35.5v121.9H606.6z"/>
		<path class="st0" d="M822,62.4v121.9h-31.2l-78.7-80.1v80.1h-34.3V62.4h37.6l72.2,74.5V62.4H822z"/>
		<path class="st0" d="M988.1,157.1v27.2h-130V62.4h128.1v27.2h-93.1v20h76.8v25.9h-76.8v21.6H988.1z"/>
		<path class="st0" d="M1103,121.9l55.4,62.3h-42.6l-34.3-38.8l-34.3,38.8h-40.4l55.2-61.8l-54-60.1h42.6l33.1,37.3l32.9-37.3h40.6
			L1103,121.9z"/>
	</g>
	<polygon class="st1" points="102.1,102 204.1,150.2 204.1,48.2 102.1,0 0,48.2 0,201.2 102.1,249.4 204.1,201.2 204.1,175.7 
		178.6,163.7 178.6,189.9 102.1,223.9 25.5,189.9 25.5,138.2 	"/>
</g>
</svg>
